version = 1
nColumns = 19
nRows = 10
inDegrees = yes
endheader 
time	r_ground_force_vx	r_ground_force_vy	r_ground_force_vz	r_ground_force_px	r_ground_force_py	r_ground_force_pz	l_ground_force_vx	l_ground_force_vy	l_ground_force_vz	l_ground_force_px	l_ground_force_py	l_ground_force_pz	r_ground_torque_x	r_ground_torque_y	r_ground_torque_z	l_ground_torque_x	l_ground_torque_y	l_ground_torque_z	
          0.23947958	          0.00000000	          0.00000000	          0.00000000	          0.00000000	          0.00000000	          0.00000000	       -141.54923267	        101.89525942	         86.88894435	          2.06079356	          0.00000000	         -0.10629268	          0.00000000	          0.00000000	          0.00000000	          0.00000000	          0.80936771	          0.00000000	
          0.24022221	          0.00000000	          0.00000000	          0.00000000	          0.00000000	          0.00000000	          0.00000000	       -245.75367954	        187.54853279	       -164.44127010	          0.12313303	          0.00000000	          0.11843299	          0.00000000	          0.00000000	          0.00000000	          0.00000000	         -1.91900061	          0.00000000	
          0.24256862	          0.00000000	          0.00000000	          0.00000000	          0.00000000	          0.00000000	          0.00000000	      -1469.11872957	       2166.63378159	      -1135.79471461	          0.16610955	          0.00000000	          0.13779014	          0.00000000	          0.00000000	          0.00000000	          0.00000000	         28.92364228	          0.00000000	
          0.24426917	          0.00000000	          0.00000000	          0.00000000	          0.00000000	          0.00000000	          0.00000000	      -1280.69435766	       3559.03303239	       -353.55877725	          0.15194397	          0.00000000	          0.12686525	          0.00000000	          0.00000000	          0.00000000	          0.00000000	        143.20399956	          0.00000000	
          0.24501180	          0.00000000	          0.00000000	          0.00000000	          0.00000000	          0.00000000	          0.00000000	       -901.86371205	       3489.95429113	       -399.07988189	          0.13214306	          0.00000000	          0.11599729	          0.00000000	          0.00000000	          0.00000000	          0.00000000	         87.68132458	          0.00000000	
          0.24735821	          0.00000000	          0.00000000	          0.00000000	          0.00000000	          0.00000000	          0.00000000	       -116.69996880	       4090.24995974	       -342.67268381	          0.11204813	          0.00000000	          0.10249819	          0.00000000	          0.00000000	          0.00000000	          0.00000000	         36.29755525	          0.00000000	
          0.24905876	          0.00000000	          0.00000000	          0.00000000	          0.00000000	          0.00000000	          0.00000000	       -285.69483327	       4496.85522537	       -247.25794673	          0.11677518	          0.00000000	          0.10140985	          0.00000000	          0.00000000	          0.00000000	          0.00000000	         44.65581810	          0.00000000	
          0.24980139	          0.00000000	          0.00000000	          0.00000000	          0.00000000	          0.00000000	          0.00000000	       -270.97447847	       4495.53676489	       -260.31760693	          0.11783883	          0.00000000	          0.09999486	          0.00000000	          0.00000000	          0.00000000	          0.00000000	         36.73246842	          0.00000000	
          0.25214780	          0.00000000	          0.00000000	          0.00000000	          0.00000000	          0.00000000	          0.00000000	       -257.60667258	       4251.45034926	       -159.86678756	          0.12247349	          0.00000000	          0.09613895	          0.00000000	          0.00000000	          0.00000000	          0.00000000	         22.92181832	          0.00000000	
          0.25384835	          0.00000000	          0.00000000	          0.00000000	          0.00000000	          0.00000000	          0.00000000	       -234.13106411	       3981.46639553	        -88.05263615	          0.12640017	          0.00000000	          0.09385924	          0.00000000	          0.00000000	          0.00000000	          0.00000000	         16.08718386	          0.00000000	
